<svg width="33" height="31" viewBox="0 0 33 31" fill="none" xmlns="http://www.w3.org/2000/svg">
<path d="M16.3445 0.102449C7.57701 0.0989036 0.47583 7.19653 0.47583 15.9569C0.47583 22.8843 4.91805 28.773 11.1045 30.9357C11.9377 31.1448 11.8101 30.5528 11.8101 30.1486V27.401C6.99913 27.9647 6.80414 24.7811 6.48152 24.2493C5.82919 23.1361 4.287 22.8524 4.74788 22.3207C5.84337 21.757 6.96013 22.4625 8.25415 24.3734C9.1901 25.7596 11.0159 25.5256 11.9412 25.2951C12.1433 24.462 12.5758 23.7175 13.1714 23.1396C8.18679 22.2462 6.10926 19.2044 6.10926 15.5882C6.10926 13.8333 6.68714 12.2202 7.82163 10.9191C7.0984 8.77418 7.88899 6.93773 7.99535 6.66474C10.0552 6.48039 12.1965 8.13957 12.3631 8.27075C13.5331 7.95522 14.8696 7.78859 16.3657 7.78859C17.8689 7.78859 19.209 7.96231 20.3896 8.28138C20.7902 7.97649 22.7756 6.55129 24.69 6.72501C24.7928 6.998 25.5657 8.7919 24.885 10.9084C26.0337 12.2131 26.6187 13.8404 26.6187 15.5988C26.6187 19.2221 24.5269 22.2675 19.5281 23.1467C19.9563 23.5678 20.2962 24.0699 20.5282 24.6239C20.7601 25.1778 20.8793 25.7724 20.8789 26.3729V30.3613C20.9072 30.6804 20.8789 30.9959 21.4107 30.9959C27.6893 28.8794 32.2095 22.9482 32.2095 15.9604C32.2095 7.19653 25.1048 0.102449 16.3445 0.102449V0.102449Z" fill="#E4ECF5"/>
</svg>
