<svg width="37" height="34" viewBox="0 0 37 34" fill="none" xmlns="http://www.w3.org/2000/svg">
<path d="M17.9568 0.935944C13.6963 0.935944 9.61035 2.6284 6.59775 5.641C3.58516 8.65359 1.8927 12.7396 1.8927 17C1.8927 21.2605 3.58516 25.3464 6.59775 28.359C9.61035 31.3716 13.6963 33.0641 17.9568 33.0641C22.2172 33.0641 26.3032 31.3716 29.3158 28.359C32.3284 25.3464 34.0208 21.2605 34.0208 17C34.0208 12.7396 32.3284 8.65359 29.3158 5.641C26.3032 2.6284 22.2172 0.935944 17.9568 0.935944V0.935944Z" fill="#E4ECF5"/>
<path d="M1.55201 22.0729H0.201782C0.201782 22.0729 3.64879 19.4654 11.1321 17.3931C11.1321 17.3931 23.1396 13.7466 30.9399 8.44546C33.6531 6.15845 35.7718 4.11831 36.5573 2.62689C36.5573 2.62689 35.5486 6.62177 30.8706 11.3784C29.955 11.8477 29.5973 12.4682 28.948 12.7726C29.0545 12.6526 28.8668 12.0362 28.948 11.9271C28.948 11.9271 22.8648 14.7637 10.3306 18.4965C10.3314 18.4948 5.05651 19.834 1.55201 22.0729Z" fill="#607C9D"/>
<path d="M13.9678 18.0324L15.2386 18.0535L14.5867 16.502L13.9678 18.0324ZM13.7032 19.0004L13.4715 19.8121L14.1496 20.1849L11.8998 20.1816L12.5981 19.7901L14.0473 15.0537L13.2568 14.6589H15.9344L18.1656 19.7893L18.612 20.1841H15.488L15.9344 19.7893L15.488 18.9996H13.7032V19.0004ZM22.2856 16.4708C22.7726 16.5849 24.4213 17.4371 23.8481 19.1163C23.8481 19.1163 23.137 21.2097 19.2529 19.96L18.82 20.3819V18.6952L19.2529 19.1171C19.2529 19.1171 22.2053 20.234 22.1901 18.8499C22.1859 18.5802 21.6803 18.1355 20.3258 17.9639C20.3258 17.9639 18.8023 17.9191 18.82 16.1647C18.8268 15.452 19.3493 13.6587 23.1497 14.899L23.542 14.4611L23.5327 16.1207L23.1497 15.742C23.1497 15.742 20.8999 15.0368 20.6758 15.7352C20.4374 16.4767 21.6059 16.311 22.2856 16.4708Z" fill="#25456A"/>
<path d="M31.0287 11.2076C30.1325 12.2425 28.3207 13.6147 26.8867 14.6826C26.8867 14.6826 15.3663 22.127 10.7948 25.4784C10.7948 25.4784 7.27167 27.7781 5.27466 31.3731V30.0051C5.27466 30.0051 7.18121 27.3309 11.6876 24.1401C15.6512 21.3331 27.4946 14.2471 28.948 11.9271L31.0287 11.2076Z" fill="#607C9D"/>
<path d="M4.99304 14.6809H7.67067L9.90188 18.2336V15.0757L9.45547 14.6809H11.2403L10.7939 15.0757V19.8121L11.2403 20.2069H8.56265L6.33228 16.655V19.8121L6.77784 20.2069H4.99304L5.43945 19.8121V15.0757L4.99304 14.6809ZM26.7835 18.078L28.1532 18.0721L27.4176 16.4496L26.7835 18.078ZM26.644 19.0004L26.365 19.7901L27.0904 20.1849L24.8406 20.1815L25.539 19.7901L26.9881 15.0537L26.1976 14.6589H28.8752L31.1064 19.7892L31.5529 20.1841H28.4297L28.8761 19.7892L28.4297 18.9996H26.644V19.0004Z" fill="#25456A"/>
<path d="M26.07 22.2893C25.4418 19.8096 24.018 16.9688 22.0608 14.2894C17.994 8.72451 12.8442 5.60301 10.5809 7.32948C9.46823 8.18003 9.20529 10.035 9.84447 12.5554C10.4727 15.0352 11.8964 17.876 13.8537 20.5553C14.706 21.7212 15.2217 22.3671 16.1323 23.2972L16.7072 23.5127C15.8076 22.5912 14.9156 21.5479 14.0702 20.3904C12.1332 17.7398 10.7246 14.9329 10.1057 12.4869C9.49698 10.0823 9.72272 8.32883 10.7424 7.55015C11.1304 7.25338 11.6124 7.11219 12.1636 7.11219C14.6578 7.11219 18.5875 9.99696 21.8452 14.4543C23.7822 17.1049 25.1907 19.9119 25.8096 22.3578C26.4184 24.7624 26.1926 26.5159 25.173 27.2946C23.8058 28.3387 21.2795 27.4476 18.596 25.2536L18.41 25.4438C20.3994 27.0638 22.3212 27.9912 23.7906 27.9912C24.3892 27.9912 24.9117 27.8382 25.3336 27.5144C26.4463 26.6664 26.7075 24.8097 26.07 22.2893Z" fill="#25456A"/>
<path d="M15.7847 22.3935C15.7137 22.4604 15.7104 22.5932 15.7754 22.7625C15.8404 22.9319 15.9684 23.1239 16.1312 23.2964C16.2941 23.4689 16.4784 23.6078 16.6437 23.6824C16.8091 23.7571 16.9418 23.7614 17.0127 23.6945C17.0836 23.6275 17.087 23.4948 17.022 23.3254C16.957 23.1561 16.829 22.964 16.6661 22.7915C16.5033 22.619 16.3189 22.4801 16.1536 22.4055C15.9883 22.3308 15.8556 22.3265 15.7847 22.3935V22.3935Z" fill="#25456A"/>
<path d="M20.916 2.95578L21.1113 4.30093C21.1206 4.36265 21.1485 4.4193 21.1933 4.46411C21.2381 4.50808 21.2948 4.53767 21.3565 4.54612L22.7008 4.74058L21.3556 4.93589C21.2939 4.94519 21.2373 4.97309 21.1925 5.0179C21.1485 5.06186 21.1189 5.11936 21.1104 5.18108L20.916 6.52538L20.7207 5.18023C20.7114 5.11851 20.6835 5.06186 20.6387 5.01705C20.5939 4.97309 20.5372 4.9435 20.4755 4.93504L19.1312 4.74058L20.4763 4.54528C20.5381 4.53598 20.5947 4.50808 20.6395 4.46327C20.6835 4.4193 20.7131 4.36181 20.7215 4.30009L20.916 2.95578ZM13.3067 8.87412L13.502 10.2193C13.5113 10.281 13.5392 10.3376 13.584 10.3825C13.6288 10.4264 13.6855 10.456 13.7472 10.4645L15.0915 10.6589L13.7463 10.8542C13.6846 10.8635 13.628 10.8914 13.5832 10.9362C13.5392 10.9802 13.5096 11.0377 13.5011 11.0994L13.3067 12.4437L13.1114 11.0986C13.1021 11.0368 13.0742 10.9802 13.0294 10.9354C12.9846 10.8914 12.9279 10.8618 12.8662 10.8534L11.5219 10.6589L12.867 10.4636C12.9288 10.4543 12.9854 10.4264 13.0302 10.3816C13.0742 10.3376 13.1038 10.2801 13.1122 10.2184L13.3067 8.87412ZM14.1522 26.6291L14.3475 27.9743C14.3568 28.036 14.3847 28.0927 14.4295 28.1375C14.4743 28.1814 14.5309 28.211 14.5927 28.2195L15.937 28.4139L14.5918 28.6092C14.5301 28.6185 14.4734 28.6464 14.4286 28.6913C14.3847 28.7352 14.3551 28.7927 14.3466 28.8544L14.1522 30.1987L13.9569 28.8536C13.9476 28.7919 13.9197 28.7352 13.8749 28.6904C13.83 28.6464 13.7734 28.6169 13.7117 28.6084L12.3674 28.4139L13.7125 28.2186C13.7742 28.2093 13.8309 28.1814 13.8757 28.1366C13.9197 28.0927 13.9493 28.0352 13.9577 27.9734L14.1522 26.6291ZM30.2162 20.7108L30.4115 22.056C30.4208 22.1177 30.4487 22.1743 30.4935 22.2191C30.5375 22.2631 30.595 22.2927 30.6567 22.3011L32.001 22.4956L30.6559 22.6909C30.5942 22.7002 30.5375 22.7281 30.4927 22.7729C30.4487 22.8177 30.4191 22.8744 30.4107 22.9361L30.2162 24.2804L30.0209 22.9352C30.0116 22.8735 29.9837 22.8169 29.9389 22.7721C29.8949 22.7281 29.8375 22.6985 29.7757 22.6901L28.4314 22.4956L29.7766 22.3003C29.8383 22.291 29.8949 22.2631 29.9398 22.2183C29.9837 22.1735 30.0133 22.1168 30.0218 22.0551L30.2162 20.7108ZM28.5253 24.6093C28.4132 24.6093 28.3056 24.6538 28.2264 24.7331C28.1471 24.8124 28.1025 24.9199 28.1025 25.032C28.1025 25.1441 28.1471 25.2517 28.2264 25.331C28.3056 25.4102 28.4132 25.4548 28.5253 25.4548C28.6374 25.4548 28.7449 25.4102 28.8242 25.331C28.9035 25.2517 28.948 25.1441 28.948 25.032C28.948 24.9199 28.9035 24.8124 28.8242 24.7331C28.7449 24.6538 28.6374 24.6093 28.5253 24.6093ZM8.23383 23.7638C8.12171 23.7638 8.01418 23.8084 7.93491 23.8876C7.85563 23.9669 7.81109 24.0744 7.81109 24.1866C7.81109 24.2987 7.85563 24.4062 7.93491 24.4855C8.01418 24.5648 8.12171 24.6093 8.23383 24.6093C8.34594 24.6093 8.45347 24.5648 8.53275 24.4855C8.61203 24.4062 8.65657 24.2987 8.65657 24.1866C8.65657 24.0744 8.61203 23.9669 8.53275 23.8876C8.45347 23.8084 8.34594 23.7638 8.23383 23.7638ZM5.6974 22.0729C5.58528 22.0729 5.47775 22.1174 5.39848 22.1967C5.3192 22.276 5.27466 22.3835 5.27466 22.4956C5.27466 22.6077 5.3192 22.7152 5.39848 22.7945C5.47775 22.8738 5.58528 22.9183 5.6974 22.9183C5.80951 22.9183 5.91704 22.8738 5.99632 22.7945C6.0756 22.7152 6.12014 22.6077 6.12014 22.4956C6.12014 22.3835 6.0756 22.276 5.99632 22.1967C5.91704 22.1174 5.80951 22.0729 5.6974 22.0729ZM18.3796 6.0088C18.2674 6.0088 18.1599 6.05334 18.0806 6.13261C18.0014 6.21189 17.9568 6.31942 17.9568 6.43154C17.9568 6.54365 18.0014 6.65118 18.0806 6.73046C18.1599 6.80974 18.2674 6.85427 18.3796 6.85427C18.4917 6.85427 18.5992 6.80974 18.6785 6.73046C18.7578 6.65118 18.8023 6.54365 18.8023 6.43154C18.8023 6.31942 18.7578 6.21189 18.6785 6.13261C18.5992 6.05334 18.4917 6.0088 18.3796 6.0088ZM14.9976 11.9271C14.8855 11.9271 14.778 11.9717 14.6987 12.051C14.6194 12.1302 14.5749 12.2378 14.5749 12.3499C14.5749 12.462 14.6194 12.5695 14.6987 12.6488C14.778 12.7281 14.8855 12.7726 14.9976 12.7726C15.1098 12.7726 15.2173 12.7281 15.2966 12.6488C15.3758 12.5695 15.4204 12.462 15.4204 12.3499C15.4204 12.2378 15.3758 12.1302 15.2966 12.051C15.2173 11.9717 15.1098 11.9271 14.9976 11.9271Z" fill="#25456A"/>
</svg>
