<svg width="151" height="151" viewBox="0 0 151 151" fill="none" xmlns="http://www.w3.org/2000/svg">
<g filter="url(#filter0_b_33_31)">
<path d="M150.42 75.575C150.42 95.5016 142.504 114.612 128.414 128.702C114.323 142.793 95.2128 150.708 75.2861 150.708C55.3595 150.708 36.249 142.793 22.1587 128.702C8.06842 114.612 0.152588 95.5016 0.152588 75.575C0.152588 55.6483 8.06842 36.5378 22.1587 22.4475C36.249 8.35724 55.3595 0.441406 75.2861 0.441406C95.2128 0.441406 114.323 8.35724 128.414 22.4475C142.504 36.5378 150.42 55.6483 150.42 75.575V75.575ZM63.9222 48.2733C63.22 47.7734 62.3938 47.4763 61.5341 47.4148C60.6743 47.3532 59.8142 47.5294 59.048 47.9242C58.2817 48.3189 57.6389 48.917 57.19 49.6528C56.741 50.3886 56.5033 51.2338 56.5027 52.0957V99.0542C56.5033 99.9161 56.741 100.761 57.19 101.497C57.6389 102.233 58.2817 102.831 59.048 103.226C59.8142 103.62 60.6743 103.797 61.5341 103.735C62.3938 103.674 63.22 103.377 63.9222 102.877L96.7931 79.3974C97.4018 78.963 97.898 78.3895 98.2404 77.7246C98.5827 77.0598 98.7613 76.3228 98.7613 75.575C98.7613 74.8271 98.5827 74.0901 98.2404 73.4253C97.898 72.7604 97.4018 72.1869 96.7931 71.7525L63.9222 48.2733V48.2733Z" fill="#E4ECF5" fill-opacity="0.5"/>
</g>
<defs>
<filter id="filter0_b_33_31" x="-9.84741" y="-9.55859" width="170.267" height="170.267" filterUnits="userSpaceOnUse" color-interpolation-filters="sRGB">
<feFlood flood-opacity="0" result="BackgroundImageFix"/>
<feGaussianBlur in="BackgroundImage" stdDeviation="5"/>
<feComposite in2="SourceAlpha" operator="in" result="effect1_backgroundBlur_33_31"/>
<feBlend mode="normal" in="SourceGraphic" in2="effect1_backgroundBlur_33_31" result="shape"/>
</filter>
</defs>
</svg>
