<svg width="45" height="89" viewBox="0 0 45 89" fill="none" xmlns="http://www.w3.org/2000/svg">
<path d="M18.7803 3.27458L20.4808 1.71783C21.0669 1.18179 21.7554 0.895752 22.4596 0.895752C23.1639 0.895752 23.8524 1.18179 24.4384 1.71783L26.139 3.27458C29.3967 6.25473 32.0678 10.2924 33.9153 15.0292C35.7629 19.766 36.7296 25.0554 36.7298 30.4279V47.2307H8.18945V30.4295C8.18945 25.0567 9.15613 19.767 11.0037 15.0299C12.8512 10.2928 15.5225 6.25489 18.7803 3.27458V3.27458Z" fill="#E4ECF5" stroke="#25456A" stroke-linecap="round" stroke-linejoin="round"/>
<path d="M8.18954 34.3607L1.62667 41.0513C1.2599 41.4252 1.05444 41.928 1.05444 42.4518V45.2307C1.05444 46.3353 1.94987 47.2307 3.05444 47.2307H41.865C42.9696 47.2307 43.865 46.3353 43.865 45.2307V42.4518C43.865 41.928 43.6596 41.4252 43.2928 41.0513L36.7299 34.3607" fill="#E4ECF5"/>
<path d="M8.18954 34.3607L1.62667 41.0513C1.2599 41.4252 1.05444 41.928 1.05444 42.4518V45.2307C1.05444 46.3353 1.94987 47.2307 3.05444 47.2307H41.865C42.9696 47.2307 43.865 46.3353 43.865 45.2307V42.4518C43.865 41.928 43.6596 41.4252 43.2928 41.0513L36.7299 34.3607" stroke="#25456A" stroke-linecap="round" stroke-linejoin="round"/>
<path d="M22.4597 26.3604C25.3576 26.3604 27.7067 24.0491 27.7067 21.1979C27.7067 18.3468 25.3576 16.0355 22.4597 16.0355C19.5618 16.0355 17.2126 18.3468 17.2126 21.1979C17.2126 24.0491 19.5618 26.3604 22.4597 26.3604Z" fill="#25456A"/>
<path d="M22.4597 51.1049V86.3276" stroke="#7346A0" stroke-width="4" stroke-linecap="round" stroke-linejoin="round"/>
<path d="M14.9606 51.1048V73.4842" stroke="#B89232" stroke-width="4" stroke-linecap="round" stroke-linejoin="round"/>
<path d="M29.959 50.8705V73.2498" stroke="#40ABA5" stroke-width="4" stroke-linecap="round" stroke-linejoin="round"/>
</svg>
