<svg width="44" height="88" viewBox="0 0 44 88" fill="none" xmlns="http://www.w3.org/2000/svg">
<path d="M18.3811 2.65544L20.0817 1.09869C20.6677 0.562651 21.3562 0.276611 22.0605 0.276611C22.7647 0.276611 23.4533 0.562651 24.0393 1.09869L25.7398 2.65544C28.9975 5.63559 31.6686 9.67325 33.5162 14.41C35.3637 19.1468 36.3305 24.4362 36.3307 29.8088V46.6115H7.79028V29.8104C7.79028 24.4376 8.75696 19.1478 10.6045 14.4107C12.452 9.67366 15.1233 5.63575 18.3811 2.65544V2.65544Z" fill="#E4ECF5"/>
<path d="M7.79037 33.7416L1.2275 40.4321C0.860732 40.806 0.655273 41.3089 0.655273 41.8326V44.6116C0.655273 45.7162 1.5507 46.6116 2.65527 46.6116H41.4658C42.5704 46.6116 43.4658 45.7162 43.4658 44.6116V41.8326C43.4658 41.3089 43.2604 40.806 42.8936 40.4321L36.3308 33.7416" fill="#E4ECF5"/>
<path d="M22.0605 25.7412C24.9584 25.7412 27.3076 23.4299 27.3076 20.5788C27.3076 17.7277 24.9584 15.4164 22.0605 15.4164C19.1627 15.4164 16.8135 17.7277 16.8135 20.5788C16.8135 23.4299 19.1627 25.7412 22.0605 25.7412Z" fill="#25456A"/>
<path d="M22.0605 50.4857V85.7084" stroke="#7346A0" stroke-width="4" stroke-linecap="round" stroke-linejoin="round"/>
<path d="M14.5614 50.4857V72.865" stroke="#B89232" stroke-width="4" stroke-linecap="round" stroke-linejoin="round"/>
<path d="M29.5598 50.2513V72.6307" stroke="#40ABA5" stroke-width="4" stroke-linecap="round" stroke-linejoin="round"/>
</svg>
