<svg width="1440" height="1024" viewBox="0 0 1440 1024" fill="none" xmlns="http://www.w3.org/2000/svg">
<rect width="1440" height="1024" fill="#25456A"/>
<circle r="3.84317" transform="matrix(-1 0 0 1 97.2944 109.504)" fill="#40ABA5"/>
<circle r="3.84317" transform="matrix(-1 0 0 1 859.438 434.683)" fill="#7346A0"/>
<circle r="3.84317" transform="matrix(-1 0 0 1 1035.6 254.759)" fill="#B89232"/>
<circle r="5.12424" transform="matrix(-1 0 0 1 418.205 192.773)" fill="#B89232"/>
<circle r="5.12424" transform="matrix(-1 0 0 1 362.523 373.124)" fill="#7346A0"/>
<circle r="5.12424" transform="matrix(-1 0 0 1 124.925 549.999)" fill="#7346A0"/>
<circle r="5.12424" transform="matrix(-1 0 0 1 363.941 998.796)" fill="#7346A0"/>
<circle r="5.12424" transform="matrix(-1 0 0 1 926.859 128.72)" fill="#40ABA5"/>
<circle r="5.12424" transform="matrix(-1 0 0 1 1106.41 31.3632)" fill="#7346A0"/>
<circle r="5.12424" transform="matrix(-1 0 0 1 1094.11 370.841)" fill="#40ABA5"/>
<circle r="3.20265" transform="matrix(-1 0 0 1 683.354 137.047)" fill="#B89232"/>
<circle r="3.20265" transform="matrix(-1 0 0 1 254.199 184.446)" fill="#7346A0"/>
<circle cx="1309.29" cy="495.917" r="4.62227" fill="#40ABA5"/>
<circle cx="232.03" cy="668.482" r="4.62227" fill="#B89232"/>
<circle cx="1043.55" cy="687.563" r="4.11167" fill="#B89232"/>
<circle cx="466.49" cy="606.852" r="6.16304" fill="#7346A0"/>
<circle cx="999.138" cy="927.879" r="6.16304" fill="#7346A0"/>
<circle cx="202.421" cy="361.873" r="7.13544" fill="#40ABA5"/>
<circle cx="1253.05" cy="746.291" r="3.8519" fill="#B89232"/>
<circle cx="1317.76" cy="891.446" r="3.8519" fill="#40ABA5"/>
<circle cx="682.872" cy="691.674" r="5.51819" fill="#40ABA5"/>
<circle cx="166.4" cy="937.894" r="3.8519" fill="#40ABA5"/>
<circle cx="427.181" cy="821.636" r="3.8519" fill="#40ABA5"/>
<circle cx="510.042" cy="310.622" r="3.8519" fill="#40ABA5"/>
<circle cx="604.419" cy="489.044" r="3.8519" fill="#B89232"/>
<circle cx="855.586" cy="738.587" r="3.8519" fill="#B89232"/>
<circle cx="686.557" cy="945.598" r="3.8519" fill="#B89232"/>
<circle cx="1280.49" cy="112.98" r="7.3189" fill="#B89232"/>
<circle cx="1144.33" cy="568.148" r="2.6701" fill="#7346A0"/>
</svg>
