<svg width="204" height="31" viewBox="0 0 204 31" fill="none" xmlns="http://www.w3.org/2000/svg">
<path d="M102.074 20.2581C102.074 22.6254 100.57 23.809 97.561 23.809C94.5521 23.809 93.0477 22.6254 93.0477 20.2581V18.1022H94.9171V20.3595C94.9171 20.9683 95.1397 21.4417 95.5848 21.7799C96.0298 22.1181 96.6886 22.2872 97.561 22.2872C98.4333 22.2872 99.0921 22.1181 99.5372 21.7799C99.9822 21.4417 100.205 20.9852 100.205 20.4103C100.205 19.8184 100.134 19.3534 99.9912 19.0153C99.8665 18.6602 99.5995 18.2882 99.19 17.8993L94.4898 13.5367C93.9379 13.0125 93.5551 12.5053 93.3415 12.0149C93.1457 11.5076 93.0477 10.8735 93.0477 10.1126C93.0477 8.97972 93.4127 8.1089 94.1427 7.50018C94.8904 6.87456 96.012 6.56174 97.5075 6.56174C100.374 6.56174 101.807 7.74536 101.807 10.1126V12.2685H99.9377V10.0112C99.9377 9.40245 99.7241 8.929 99.2968 8.59081C98.8873 8.25263 98.2642 8.08354 97.4274 8.08354C96.5907 8.08354 95.9586 8.25263 95.5313 8.59081C95.1219 8.929 94.9171 9.394 94.9171 9.98581C94.9171 10.5776 94.9794 11.0426 95.104 11.3808C95.2287 11.719 95.5046 12.0741 95.9319 12.4461L100.712 16.8086C101.229 17.3497 101.585 17.8739 101.78 18.3812C101.976 18.8715 102.074 19.4972 102.074 20.2581ZM109.419 6.94219H115.294V8.464H111.288V20.6132C111.288 21.0866 111.413 21.484 111.662 21.8053C111.929 22.1265 112.294 22.2872 112.757 22.2872C113.238 22.2872 113.603 22.135 113.852 21.8306C114.101 21.5094 114.226 21.1035 114.226 20.6132V17.5949H116.095V20.5117C116.095 21.577 115.793 22.3971 115.187 22.972C114.6 23.53 113.799 23.809 112.784 23.809C111.769 23.809 110.95 23.53 110.327 22.972C109.722 22.3971 109.419 21.577 109.419 20.5117V6.94219ZM131.05 23.4285H130.249L129.555 21.8053C129.181 22.414 128.691 22.9044 128.086 23.2764C127.481 23.6314 126.813 23.809 126.083 23.809C123.519 23.809 122.238 22.6254 122.238 20.2581V17.7217C122.238 15.3545 123.519 14.1708 126.083 14.1708H129.181V10.0112C129.181 9.40245 128.976 8.929 128.567 8.59081C128.157 8.25263 127.552 8.08354 126.751 8.08354C125.166 8.08354 124.374 8.72609 124.374 10.0112V11.5076H122.505V10.1126C122.505 8.97972 122.852 8.1089 123.546 7.50018C124.258 6.87456 125.326 6.56174 126.751 6.56174C128.175 6.56174 129.243 6.87456 129.955 7.50018C130.685 8.1089 131.05 8.97972 131.05 10.1126V23.4285ZM129.181 15.6926H126.083C125.335 15.6926 124.819 15.8702 124.534 16.2253C124.249 16.5804 124.107 17.0792 124.107 17.7217V20.2581C124.107 20.9006 124.249 21.3994 124.534 21.7545C124.819 22.1096 125.335 22.2872 126.083 22.2872C126.831 22.2872 127.525 22.0166 128.166 21.4755C128.807 20.9175 129.145 20.368 129.181 19.8269V15.6926ZM142.614 16.5804V15.0585H147.474V20.2581C147.474 21.391 147.109 22.2703 146.379 22.8959C145.649 23.5046 144.554 23.809 143.094 23.809C141.635 23.809 140.531 23.5046 139.783 22.8959C139.035 22.2703 138.661 21.391 138.661 20.2581V10.1126C138.661 8.97972 139.026 8.1089 139.756 7.50018C140.486 6.87456 141.581 6.56174 143.041 6.56174C144.501 6.56174 145.605 6.87456 146.353 7.50018C147.1 8.1089 147.474 8.97972 147.474 10.1126V11.5076H145.605V10.1126C145.605 8.7599 144.759 8.08354 143.068 8.08354C141.376 8.08354 140.531 8.7599 140.531 10.1126V20.2581C140.531 21.6108 141.376 22.2872 143.068 22.2872C144.759 22.2872 145.605 21.6108 145.605 20.2581V16.5804H142.614ZM157.222 23.4285H155.352V6.94219H156.153L156.928 8.81909C157.498 7.31418 158.406 6.56174 159.652 6.56174C161.771 6.56174 162.83 7.66081 162.83 9.859V11.5076H161.041V9.75754C161.041 8.64154 160.551 8.08354 159.572 8.08354C158.984 8.08354 158.441 8.40481 157.943 9.04736C157.462 9.6899 157.222 10.6199 157.222 11.8374V23.4285ZM177.261 23.4285H176.46L175.766 21.8053C175.392 22.414 174.902 22.9044 174.297 23.2764C173.692 23.6314 173.024 23.809 172.294 23.809C169.73 23.809 168.448 22.6254 168.448 20.2581V17.7217C168.448 15.3545 169.73 14.1708 172.294 14.1708H175.392V10.0112C175.392 9.40245 175.187 8.929 174.778 8.59081C174.368 8.25263 173.763 8.08354 172.962 8.08354C171.377 8.08354 170.585 8.72609 170.585 10.0112V11.5076H168.715V10.1126C168.715 8.97972 169.063 8.1089 169.757 7.50018C170.469 6.87456 171.537 6.56174 172.962 6.56174C174.386 6.56174 175.454 6.87456 176.166 7.50018C176.896 8.1089 177.261 8.97972 177.261 10.1126V23.4285ZM175.392 15.6926H172.294C171.546 15.6926 171.03 15.8702 170.745 16.2253C170.46 16.5804 170.318 17.0792 170.318 17.7217V20.2581C170.318 20.9006 170.46 21.3994 170.745 21.7545C171.03 22.1096 171.546 22.2872 172.294 22.2872C173.042 22.2872 173.736 22.0166 174.377 21.4755C175.018 20.9175 175.356 20.368 175.392 19.8269V15.6926ZM187.142 23.4285H185.273V6.94219H186.074L186.742 8.56545C187.115 7.95672 187.605 7.47481 188.21 7.11972C188.816 6.74774 189.474 6.56174 190.187 6.56174C191.985 6.56174 193.133 7.1789 193.632 8.41327C194.486 7.1789 195.608 6.56174 196.996 6.56174C199.507 6.56174 200.762 7.74536 200.762 10.1126V23.4285H198.893V10.1126C198.893 8.7599 198.252 8.08354 196.97 8.08354C196.222 8.08354 195.528 8.371 194.887 8.9459C194.264 9.52081 193.952 10.0788 193.952 10.6199V23.4285H192.083V10.1126C192.083 8.7599 191.442 8.08354 190.16 8.08354C189.412 8.08354 188.718 8.36254 188.077 8.92054C187.454 9.46163 187.142 10.0027 187.142 10.5438V23.4285Z" fill="#E4ECF5"/>
<path d="M0.0472412 7.22397C0.0472412 3.33288 3.36847 0.178528 7.46545 0.178528H87.6733V23.4285C87.6733 27.3196 84.3514 30.474 80.2551 30.474H0.0472412V7.22397Z" fill="#E4ECF5"/>
<path d="M16.0844 20.2581C16.0844 22.6254 14.58 23.809 11.5711 23.809C8.56233 23.809 7.05792 22.6254 7.05792 20.2581V18.1022H8.9273V20.3595C8.9273 20.9683 9.14985 21.4417 9.59494 21.7799C10.04 22.1181 10.6988 22.2872 11.5711 22.2872C12.4435 22.2872 13.1023 22.1181 13.5473 21.7799C13.9924 21.4417 14.215 20.9852 14.215 20.4103C14.215 19.8185 14.1438 19.3535 14.0013 19.0153C13.8767 18.6602 13.6097 18.2882 13.2002 17.8993L8.50002 13.5367C7.9481 13.0125 7.56533 12.5053 7.35168 12.0149C7.15584 11.5076 7.05792 10.8735 7.05792 10.1126C7.05792 8.97972 7.4229 8.1089 8.15285 7.50018C8.9006 6.87456 10.0222 6.56174 11.5177 6.56174C14.3841 6.56174 15.8173 7.74536 15.8173 10.1126V12.2685H13.9479V10.0112C13.9479 9.40245 13.7343 8.929 13.307 8.59081C12.8975 8.25263 12.2744 8.08354 11.4376 8.08354C10.6008 8.08354 9.96882 8.25263 9.54153 8.59081C9.13205 8.929 8.9273 9.394 8.9273 9.98581C8.9273 10.5776 8.98962 11.0426 9.11424 11.3808C9.23887 11.719 9.51482 12.0741 9.94211 12.4461L14.7224 16.8086C15.2387 17.3497 15.5948 17.8739 15.7906 18.3812C15.9864 18.8715 16.0844 19.4972 16.0844 20.2581ZM25.4325 23.4285H23.5632V6.94219H27.5957C28.9844 6.94219 30.0348 7.255 30.7469 7.88063C31.4769 8.50627 31.8418 9.37709 31.8418 10.4931V14.8049C31.8418 15.9378 31.4858 16.8171 30.7736 17.4427C30.0615 18.0515 29.0022 18.3558 27.5957 18.3558H25.4325V23.4285ZM29.9725 14.8049V10.4931C29.9725 9.85054 29.7677 9.35172 29.3582 8.99663C28.9488 8.64154 28.3612 8.464 27.5957 8.464H25.4325V16.834H27.5957C29.1802 16.834 29.9725 16.1576 29.9725 14.8049ZM47.33 23.4285H46.5288L45.8345 21.8053C45.4606 22.414 44.971 22.9044 44.3657 23.2764C43.7603 23.6315 43.0927 23.809 42.3628 23.809C39.799 23.809 38.5172 22.6254 38.5172 20.2581V17.7217C38.5172 15.3545 39.799 14.1708 42.3628 14.1708H45.4606V10.0112C45.4606 9.40245 45.2558 8.929 44.8464 8.59081C44.4369 8.25263 43.8316 8.08354 43.0304 8.08354C41.4459 8.08354 40.6536 8.72609 40.6536 10.0112V11.5076H38.7842V10.1126C38.7842 8.97972 39.1314 8.1089 39.8257 7.50018C40.5379 6.87456 41.6061 6.56174 43.0304 6.56174C44.4547 6.56174 45.5229 6.87456 46.235 7.50018C46.965 8.1089 47.33 8.97972 47.33 10.1126V23.4285ZM45.4606 15.6926H42.3628C41.615 15.6926 41.0987 15.8702 40.8138 16.2253C40.529 16.5804 40.3865 17.0792 40.3865 17.7217V20.2581C40.3865 20.9006 40.529 21.3995 40.8138 21.7545C41.0987 22.1096 41.615 22.2872 42.3628 22.2872C43.1105 22.2872 43.8048 22.0166 44.4458 21.4755C45.0867 20.9175 45.425 20.368 45.4606 19.8269V15.6926ZM61.8844 20.2581V18.8631H63.7538V20.2581C63.7538 21.391 63.3888 22.2703 62.6589 22.8959C61.9289 23.5046 60.834 23.809 59.3741 23.809C57.9142 23.809 56.8104 23.5046 56.0627 22.8959C55.3149 22.2703 54.941 21.391 54.941 20.2581V10.1126C54.941 8.97972 55.306 8.1089 56.0359 7.50018C56.7659 6.87456 57.8608 6.56174 59.3207 6.56174C60.7806 6.56174 61.8844 6.87456 62.6322 7.50018C63.3799 8.1089 63.7538 8.97972 63.7538 10.1126V12.5222H61.8844V10.1126C61.8844 8.75991 61.0388 8.08354 59.3474 8.08354C57.6561 8.08354 56.8104 8.75991 56.8104 10.1126V20.2581C56.8104 21.6108 57.6561 22.2872 59.3474 22.2872C61.0388 22.2872 61.8844 21.6108 61.8844 20.2581ZM77.9139 20.2581V18.8631H79.7833V20.2581C79.7833 21.391 79.4183 22.2703 78.6883 22.8959C77.9584 23.5046 76.8635 23.809 75.4036 23.809C73.9437 23.809 72.8399 23.5046 72.0922 22.8959C71.3444 22.2703 70.9705 21.391 70.9705 20.2581V10.1126C70.9705 8.97972 71.3355 8.1089 72.0655 7.50018C72.7954 6.87456 73.8903 6.56174 75.3501 6.56174C76.81 6.56174 77.9139 6.87456 78.6616 7.50018C79.4094 8.1089 79.7833 8.97972 79.7833 10.1126V15.6926H72.8399V20.2581C72.8399 21.6108 73.6856 22.2872 75.3769 22.2872C77.0682 22.2872 77.9139 21.6108 77.9139 20.2581ZM72.8399 10.1126V14.1708H77.9139V10.1126C77.9139 8.75991 77.0682 8.08354 75.3769 8.08354C73.6856 8.08354 72.8399 8.75991 72.8399 10.1126Z" fill="#25456A"/>
</svg>
